<?xml version="1.0" encoding="iso-8859-1"?>
<!-- Generator: Adobe Illustrator 15.0.0, SVG Export Plug-In . SVG Version: 6.00 Build 0)  -->
<!DOCTYPE svg PUBLIC "-//W3C//DTD SVG 1.1//EN" "http://www.w3.org/Graphics/SVG/1.1/DTD/svg11.dtd">
<svg version="1.1" id="Layer_1" xmlns="http://www.w3.org/2000/svg" xmlns:xlink="http://www.w3.org/1999/xlink" x="0px" y="0px"
	 width="22.633px" height="43px" viewBox="0 0 22.633 43" style="enable-background:new 0 0 22.633 43;" xml:space="preserve">
<g>
	<polygon points="3.355,16.172 3.355,13.438 14.553,24.625 16.934,22.242 5.738,11.055 8.498,11.055 8.498,7.695 0,7.688 
		0.016,16.188 	"/>
	<polygon points="16.875,11.039 12.129,15.801 14.51,18.18 19.258,13.422 19.258,16.18 22.621,16.18 22.629,7.684 14.127,7.699 
		14.143,11.039 	"/>
	<polygon points="22.617,21.812 19.277,21.828 19.277,24.562 14.516,19.812 12.133,22.195 16.895,26.945 14.133,26.945 
		14.135,30.305 22.633,30.312 	"/>
	<polygon points="5.756,26.961 16.691,16.012 14.309,13.629 3.373,24.578 3.371,21.816 0.01,21.816 0.004,30.316 8.504,30.301 
		8.488,26.961 	"/>
</g>
</svg>
