<?xml version="1.0" encoding="iso-8859-1"?>
<!-- Generator: Adobe Illustrator 15.0.0, SVG Export Plug-In . SVG Version: 6.00 Build 0)  -->
<!DOCTYPE svg PUBLIC "-//W3C//DTD SVG 1.1//EN" "http://www.w3.org/Graphics/SVG/1.1/DTD/svg11.dtd">
<svg version="1.1" id="Layer_1" xmlns="http://www.w3.org/2000/svg" xmlns:xlink="http://www.w3.org/1999/xlink" x="0px" y="0px"
	 width="23.991px" height="43px" viewBox="0 0 23.991 43" style="enable-background:new 0 0 23.991 43;" xml:space="preserve">
<path d="M11.776,4.625L9.733,6.672l2.723,2.727c-3.223-0.125-6.479,1.031-8.94,3.492c-4.688,4.684-4.688,12.285,0,16.969
	c4.686,4.688,12.282,4.688,16.968,0c3.711-3.711,4.473-9.238,2.309-13.707l-2.293,2.293c1.078,3.152,0.375,6.785-2.137,9.293
	c-3.508,3.508-9.219,3.508-12.726,0c-3.51-3.508-3.508-9.219,0-12.727c2.018-2.02,4.761-2.867,7.397-2.566l-2.801,2.797l2.047,2.051
	l3.891-3.891l0,0l2.191-2.191l0,0l0,0L11.776,4.625z"/>
</svg>
