<?xml version="1.0" encoding="iso-8859-1"?>
<!-- Generator: Adobe Illustrator 15.0.0, SVG Export Plug-In . SVG Version: 6.00 Build 0)  -->
<!DOCTYPE svg PUBLIC "-//W3C//DTD SVG 1.1//EN" "http://www.w3.org/Graphics/SVG/1.1/DTD/svg11.dtd">
<svg version="1.1" id="Layer_1" xmlns="http://www.w3.org/2000/svg" xmlns:xlink="http://www.w3.org/1999/xlink" x="0px" y="0px"
	 width="32px" height="43px" viewBox="0 0 32 43" style="enable-background:new 0 0 32 43;" xml:space="preserve">
<polygon points="25.977,12.996 23.629,15.371 25.562,17.305 17.68,17.312 17.67,9.438 19.623,11.391 22,9.012 15.996,3 9.996,9.023 
	12.369,11.371 14.303,9.438 14.312,17.316 6.438,17.328 8.391,15.375 6.012,13 0,19.004 6.021,25.004 8.371,22.629 6.439,20.695 
	14.316,20.688 14.328,28.562 12.375,26.609 9.996,28.988 16.002,35 22,28.977 19.629,26.629 17.695,28.562 17.686,20.684 
	25.562,20.672 23.609,22.625 25.988,25 32,18.996 "/>
</svg>
