<?xml version="1.0" encoding="iso-8859-1"?>
<!-- Generator: Adobe Illustrator 15.0.0, SVG Export Plug-In . SVG Version: 6.00 Build 0)  -->
<!DOCTYPE svg PUBLIC "-//W3C//DTD SVG 1.1//EN" "http://www.w3.org/Graphics/SVG/1.1/DTD/svg11.dtd">
<svg version="1.1" id="Layer_1" xmlns="http://www.w3.org/2000/svg" xmlns:xlink="http://www.w3.org/1999/xlink" x="0px" y="0px"
	 width="28.75px" height="43px" viewBox="0 0 28.75 43" style="enable-background:new 0 0 28.75 43;" xml:space="preserve">
<path d="M0,19.218l2.047,2.043l2.725-2.723c-0.125,3.223,1.031,6.48,3.492,8.941c4.688,4.688,12.283,4.688,16.971,0
	c4.688-4.687,4.688-12.28,0-16.967c-3.711-3.711-9.238-4.473-13.709-2.309l2.293,2.293c3.152-1.078,6.783-0.375,9.295,2.137
	c3.508,3.507,3.512,9.218,0,12.725c-3.512,3.512-9.219,3.508-12.729,0c-2.018-2.02-2.867-4.761-2.566-7.398l2.799,2.801l2.049-2.047
	l-3.891-3.89l0,0l-2.189-2.191H6.584l0,0L0,19.218z"/>
</svg>
