<?xml version="1.0" encoding="iso-8859-1"?>
<!-- Generator: Adobe Illustrator 15.0.0, SVG Export Plug-In . SVG Version: 6.00 Build 0)  -->
<!DOCTYPE svg PUBLIC "-//W3C//DTD SVG 1.1//EN" "http://www.w3.org/Graphics/SVG/1.1/DTD/svg11.dtd">
<svg version="1.1" id="Layer_1" xmlns="http://www.w3.org/2000/svg" xmlns:xlink="http://www.w3.org/1999/xlink" x="0px" y="0px"
	 width="32px" height="43px" viewBox="0 0 32 43" style="enable-background:new 0 0 32 43;" xml:space="preserve">
<g>
	<path style="fill:#010101;" d="M31.688,15.062h-2.414v-3.098c0-0.469-0.383-0.844-0.848-0.844H0.844
		C0.377,11.121,0,11.496,0,11.965v14.07c0,0.469,0.377,0.844,0.844,0.844h27.582c0.465,0,0.848-0.375,0.848-0.844v-4.219h2.414
		c0.172,0,0.312-0.141,0.312-0.312v-6.129C32,15.203,31.859,15.062,31.688,15.062z M28.145,25.754H1.125V12.246h27.02V25.754z"/>
	<rect x="2.25" y="13.371" style="fill:#010101;" width="13.51" height="11.258"/>
</g>
</svg>
