<?xml version="1.0" encoding="iso-8859-1"?>
<!-- Generator: Adobe Illustrator 15.0.0, SVG Export Plug-In . SVG Version: 6.00 Build 0)  -->
<!DOCTYPE svg PUBLIC "-//W3C//DTD SVG 1.1//EN" "http://www.w3.org/Graphics/SVG/1.1/DTD/svg11.dtd">
<svg version="1.1" id="Layer_1" xmlns="http://www.w3.org/2000/svg" xmlns:xlink="http://www.w3.org/1999/xlink" x="0px" y="0px"
	 width="23.984px" height="43px" viewBox="0 0 23.984 43" style="enable-background:new 0 0 23.984 43;" xml:space="preserve">
<path style="fill:#010101;" d="M21.984,3H2C0.9,3,0,3.902,0,5.004V33c0,1.102,0.9,2,2,2h19.984c1.102,0,2-0.898,2-2V5.004
	C23.984,3.902,23.086,3,21.984,3z M3.637,32.395c-0.875,0-1.584-0.707-1.584-1.582s0.709-1.586,1.584-1.586s1.584,0.711,1.584,1.586
	S4.512,32.395,3.637,32.395z M3.637,27.73c-0.875,0-1.584-0.711-1.584-1.586s0.709-1.582,1.584-1.582s1.584,0.707,1.584,1.582
	S4.512,27.73,3.637,27.73z M3.637,23.062c-0.875,0-1.584-0.711-1.584-1.586s0.709-1.582,1.584-1.582s1.584,0.707,1.584,1.582
	S4.512,23.062,3.637,23.062z M3.637,18.395c-0.875,0-1.584-0.707-1.584-1.582s0.709-1.586,1.584-1.586s1.584,0.711,1.584,1.586
	S4.512,18.395,3.637,18.395z M9.164,32.395c-0.875,0-1.584-0.707-1.584-1.582s0.709-1.586,1.584-1.586s1.584,0.711,1.584,1.586
	S10.039,32.395,9.164,32.395z M9.164,27.73c-0.875,0-1.584-0.711-1.584-1.586s0.709-1.582,1.584-1.582s1.584,0.707,1.584,1.582
	S10.039,27.73,9.164,27.73z M9.164,23.062c-0.875,0-1.584-0.711-1.584-1.586s0.709-1.582,1.584-1.582s1.584,0.707,1.584,1.582
	S10.039,23.062,9.164,23.062z M9.164,18.395c-0.875,0-1.584-0.707-1.584-1.582s0.709-1.586,1.584-1.586s1.584,0.711,1.584,1.586
	S10.039,18.395,9.164,18.395z M14.693,32.395c-0.875,0-1.584-0.707-1.584-1.582s0.709-1.586,1.584-1.586s1.584,0.711,1.584,1.586
	S15.568,32.395,14.693,32.395z M14.693,27.73c-0.875,0-1.584-0.711-1.584-1.586s0.709-1.582,1.584-1.582s1.584,0.707,1.584,1.582
	S15.568,27.73,14.693,27.73z M14.693,23.062c-0.875,0-1.584-0.711-1.584-1.586s0.709-1.582,1.584-1.582s1.584,0.707,1.584,1.582
	S15.568,23.062,14.693,23.062z M14.693,18.395c-0.875,0-1.584-0.707-1.584-1.582s0.709-1.586,1.584-1.586s1.584,0.711,1.584,1.586
	S15.568,18.395,14.693,18.395z M21.852,30.691c0,0.246-0.059,0.477-0.156,0.688c-0.227,0.594-0.801,1.016-1.477,1.016
	c-0.672,0-1.246-0.422-1.477-1.016c-0.094-0.211-0.156-0.441-0.156-0.688v-4.484c0-0.469,0.203-0.883,0.516-1.184
	c0.285-0.285,0.68-0.461,1.117-0.461s0.836,0.176,1.121,0.461c0.316,0.301,0.512,0.715,0.512,1.184V30.691z M20.219,19.895
	c0.875,0,1.586,0.707,1.586,1.582s-0.711,1.586-1.586,1.586s-1.582-0.711-1.582-1.586S19.344,19.895,20.219,19.895z M18.637,16.812
	c0-0.875,0.707-1.586,1.582-1.586s1.586,0.711,1.586,1.586s-0.711,1.582-1.586,1.582S18.637,17.688,18.637,16.812z M22.004,13.316
	H1.98V4.984h20.023V13.316z"/>
</svg>
