<?xml version="1.0" encoding="iso-8859-1"?>
<!-- Generator: Adobe Illustrator 15.0.0, SVG Export Plug-In . SVG Version: 6.00 Build 0)  -->
<!DOCTYPE svg PUBLIC "-//W3C//DTD SVG 1.1//EN" "http://www.w3.org/Graphics/SVG/1.1/DTD/svg11.dtd">
<svg version="1.1" id="Layer_1" xmlns="http://www.w3.org/2000/svg" xmlns:xlink="http://www.w3.org/1999/xlink" x="0px" y="0px"
	 width="32px" height="43px" viewBox="0 0 32 43" style="enable-background:new 0 0 32 43;" xml:space="preserve">
<path style="fill:#010101;" d="M31,14.539H19.086l3.57-8.25l-3.709-1.602l-4.26,9.852H1c-0.549,0-1,0.445-1,1v3.297
	c0,0.547,0.451,1,1,1h1.564v13.477h26.873V19.836H31c0.547,0,1-0.453,1-1v-3.297C32,14.984,31.547,14.539,31,14.539z M6.201,31.422
	H4.484v-1.727h1.717V31.422z M6.201,28.297H4.484v-1.734h1.717V28.297z M6.201,25.164H4.484v-1.727h1.717V25.164z M6.201,22.031
	H4.484v-1.727h1.717V22.031z M9.754,31.422H8.037v-1.727h1.717V31.422z M9.754,28.297H8.037v-1.734h1.717V28.297z M9.754,25.164
	H8.037v-1.727h1.717V25.164z M9.754,22.031H8.037v-1.727h1.717V22.031z M13.307,31.422h-1.719v-1.727h1.719V31.422z M13.307,28.297
	h-1.719v-1.734h1.719V28.297z M13.307,25.164h-1.719v-1.727h1.719V25.164z M13.307,22.031h-1.719v-1.727h1.719V22.031z
	 M16.857,31.422h-1.715v-1.727h1.715V31.422z M16.857,28.297h-1.715v-1.734h1.715V28.297z M16.857,25.164h-1.715v-1.727h1.715
	V25.164z M16.857,22.031h-1.715v-1.727h1.715V22.031z M20.414,31.422h-1.721v-1.727h1.721V31.422z M20.414,28.297h-1.721v-1.734
	h1.721V28.297z M20.414,25.164h-1.721v-1.727h1.721V25.164z M20.414,22.031h-1.721v-1.727h1.721V22.031z M23.961,31.422h-1.715
	v-1.727h1.715V31.422z M23.961,28.297h-1.715v-1.734h1.715V28.297z M23.961,25.164h-1.715v-1.727h1.715V25.164z M23.961,22.031
	h-1.715v-1.727h1.715V22.031z M27.516,31.422h-1.719v-1.727h1.719V31.422z M27.516,28.297h-1.719v-1.734h1.719V28.297z
	 M27.516,25.164h-1.719v-1.727h1.719V25.164z M27.516,22.031h-1.719v-1.727h1.719V22.031z"/>
</svg>
