<?xml version="1.0" encoding="iso-8859-1"?>
<!-- Generator: Adobe Illustrator 15.0.0, SVG Export Plug-In . SVG Version: 6.00 Build 0)  -->
<!DOCTYPE svg PUBLIC "-//W3C//DTD SVG 1.1//EN" "http://www.w3.org/Graphics/SVG/1.1/DTD/svg11.dtd">
<svg version="1.1" id="Layer_1" xmlns="http://www.w3.org/2000/svg" xmlns:xlink="http://www.w3.org/1999/xlink" x="0px" y="0px"
	 width="32px" height="43px" viewBox="0 0 32 43" style="enable-background:new 0 0 32 43;" xml:space="preserve">
<path style="fill:#010101;" d="M30.328,4.867L30.328,4.867h-2.07l-0.781,2.797H0l2.943,15.32h20.24l-1.504,5.375H3.662v1.938h1.75
	c-0.049,0.188-0.082,0.375-0.082,0.578c0,1.242,1.012,2.258,2.26,2.258c1.25,0,2.262-1.016,2.262-2.258
	c0-0.203-0.035-0.391-0.082-0.578h7.904c-0.049,0.188-0.082,0.375-0.082,0.578c0,1.242,1.012,2.258,2.262,2.258
	c1.248,0,2.26-1.016,2.26-2.258c0-0.203-0.035-0.391-0.082-0.578h0.266h0.906l6.254-22.312c0.254,0.156,0.543,0.25,0.863,0.25
	c0.926,0,1.68-0.758,1.68-1.688C32,5.625,31.254,4.875,30.328,4.867z M4.684,16.008H3.281v-1.406h1.402V16.008z M4.684,13.203H3.281
	v-1.406h1.402V13.203z M4.684,10.398H3.281V8.992h1.402V10.398z M7.486,21.688H6.084v-1.398h1.402V21.688z M7.486,18.812H6.084
	v-1.406h1.402V18.812z M7.486,16.008H6.084v-1.406h1.402V16.008z M7.486,13.203H6.084v-1.406h1.402V13.203z M7.486,10.398H6.084
	V8.992h1.402V10.398z M10.291,21.688H8.889v-1.398h1.402V21.688z M10.291,18.812H8.889v-1.406h1.402V18.812z M10.291,16.008H8.889
	v-1.406h1.402V16.008z M10.291,13.203H8.889v-1.406h1.402V13.203z M10.291,10.398H8.889V8.992h1.402V10.398z M13.094,21.688h-1.4
	v-1.398h1.4V21.688z M13.094,18.812h-1.4v-1.406h1.4V18.812z M13.094,16.008h-1.4v-1.406h1.4V16.008z M13.094,13.203h-1.4v-1.406
	h1.4V13.203z M13.094,10.398h-1.4V8.992h1.4V10.398z M15.898,21.688h-1.402v-1.398h1.402V21.688z M15.898,18.812h-1.402v-1.406
	h1.402V18.812z M15.898,16.008h-1.402v-1.406h1.402V16.008z M15.898,13.203h-1.402v-1.406h1.402V13.203z M15.898,10.398h-1.402
	V8.992h1.402V10.398z M18.703,21.688h-1.402v-1.398h1.402V21.688z M18.703,18.812h-1.402v-1.406h1.402V18.812z M18.703,16.008
	h-1.402v-1.406h1.402V16.008z M18.703,13.203h-1.402v-1.406h1.402V13.203z M18.703,10.398h-1.402V8.992h1.402V10.398z
	 M21.508,21.688h-1.402v-1.398h1.402V21.688z M21.508,18.812h-1.402v-1.406h1.402V18.812z M21.508,16.008h-1.402v-1.406h1.402
	V16.008z M21.508,13.203h-1.402v-1.406h1.402V13.203z M21.508,10.398h-1.402V8.992h1.402V10.398z M24.352,16.008h-1.398v-1.406
	h1.398V16.008z M24.352,13.203h-1.398v-1.406h1.398V13.203z M24.352,10.398h-1.398V8.992h1.398V10.398z"/>
</svg>
