<?xml version="1.0" encoding="iso-8859-1"?>
<!-- Generator: Adobe Illustrator 15.0.0, SVG Export Plug-In . SVG Version: 6.00 Build 0)  -->
<!DOCTYPE svg PUBLIC "-//W3C//DTD SVG 1.1//EN" "http://www.w3.org/Graphics/SVG/1.1/DTD/svg11.dtd">
<svg version="1.1" id="Layer_1" xmlns="http://www.w3.org/2000/svg" xmlns:xlink="http://www.w3.org/1999/xlink" x="0px" y="0px"
	 width="32px" height="43px" viewBox="0 0 32 43" style="enable-background:new 0 0 32 43;" xml:space="preserve">
<g>
	<path style="fill:#010101;" d="M14.275,11.926c-2.953,0-5.346,2.395-5.346,5.348s2.393,5.348,5.346,5.348s5.348-2.395,5.348-5.348
		S17.229,11.926,14.275,11.926z M17.568,18.254h-2.312v2.312h-1.961v-2.312h-2.311v-1.961h2.311V13.98h1.961v2.312h2.312V18.254z"/>
	<path style="fill:#010101;" d="M16,3C7.164,3,0,10.164,0,19s7.164,16,16,16s16-7.164,16-16S24.836,3,16,3z M22.164,28.312
		l-4.336-4.34c-1.059,0.562-2.268,0.887-3.553,0.887c-4.189,0-7.584-3.398-7.584-7.586s3.395-7.586,7.584-7.586
		s7.584,3.398,7.584,7.586c0,1.285-0.32,2.492-0.887,3.555l4.336,4.34L22.164,28.312z"/>
</g>
</svg>
