<?xml version="1.0" encoding="iso-8859-1"?>
<!-- Generator: Adobe Illustrator 15.0.0, SVG Export Plug-In . SVG Version: 6.00 Build 0)  -->
<!DOCTYPE svg PUBLIC "-//W3C//DTD SVG 1.1//EN" "http://www.w3.org/Graphics/SVG/1.1/DTD/svg11.dtd">
<svg version="1.1" id="Layer_1" xmlns="http://www.w3.org/2000/svg" xmlns:xlink="http://www.w3.org/1999/xlink" x="0px" y="0px"
	 width="32px" height="43px" viewBox="0 0 32 43" style="enable-background:new 0 0 32 43;" xml:space="preserve">
<path style="fill:#010101;" d="M0,8v22h8.041v-2.051H6v-2h6.084v2h-2.043V30h11.998v-2.051H20v-2h6.086v2h-2.047V30H32V8H0z
	 M20.914,10.918h3.25v3.25h-3.25V10.918z M16,10.918h3.25v3.25H16V10.918z M14,23h-2.342c-0.605-0.512-1.469-1.254-1.574-1.418v-1
	H11.5V18.25h0.75l-0.916-4.668l0.332-0.832H6l-0.584,2.332L5.834,20v1.332L4.709,23H2.916V10.918H14V23z M29.086,23H16v-1.582
	h13.086V23z M29.086,20.043H16v-1.586h13.086V20.043z M29.086,17.086H16V15.5h13.086V17.086z M29.086,14.168h-3.25v-3.25h3.25
	V14.168z"/>
</svg>
