<?xml version="1.0" encoding="iso-8859-1"?>
<!-- Generator: Adobe Illustrator 15.0.0, SVG Export Plug-In . SVG Version: 6.00 Build 0)  -->
<!DOCTYPE svg PUBLIC "-//W3C//DTD SVG 1.1//EN" "http://www.w3.org/Graphics/SVG/1.1/DTD/svg11.dtd">
<svg version="1.1" id="Layer_1" xmlns="http://www.w3.org/2000/svg" xmlns:xlink="http://www.w3.org/1999/xlink" x="0px" y="0px"
	 width="24px" height="43px" viewBox="0 0 24 43" style="enable-background:new 0 0 24 43;" xml:space="preserve">
<g>
	<path style="fill:#010101;" d="M0,3v22.664l5.916,5.844L9.408,35v-0.039L9.449,35H24V3H0z M22.668,33.664H9.408v-4.445H12.6v-1.125
		H9.408v-1.375h9.967v-1.133H4.506v0.008H1.332V4.336h21.336V33.664z"/>
	<rect x="4.506" y="23.078" style="fill:#010101;" width="14.869" height="1.133"/>
	<rect x="4.506" y="20.578" style="fill:#010101;" width="14.869" height="1.125"/>
	<rect x="4.506" y="18.07" style="fill:#010101;" width="14.869" height="1.125"/>
	<rect x="4.506" y="15.562" style="fill:#010101;" width="14.869" height="1.133"/>
	<rect x="4.506" y="13.062" style="fill:#010101;" width="14.869" height="1.125"/>
	<rect x="4.506" y="10.555" style="fill:#010101;" width="14.869" height="1.125"/>
	<rect x="4.506" y="8.047" style="fill:#010101;" width="8.094" height="1.133"/>
</g>
</svg>
