<?xml version="1.0" encoding="iso-8859-1"?>
<!-- Generator: Adobe Illustrator 15.0.0, SVG Export Plug-In . SVG Version: 6.00 Build 0)  -->
<!DOCTYPE svg PUBLIC "-//W3C//DTD SVG 1.1//EN" "http://www.w3.org/Graphics/SVG/1.1/DTD/svg11.dtd">
<svg version="1.1" id="Layer_1" xmlns="http://www.w3.org/2000/svg" xmlns:xlink="http://www.w3.org/1999/xlink" x="0px" y="0px"
	 width="32px" height="43px" viewBox="0 0 32 43" style="enable-background:new 0 0 32 43;" xml:space="preserve">
<path style="fill:#010101;" d="M29.164,16.777c-0.148-0.887-0.383-1.738-0.699-2.551l2.059-2.094l-0.746-1.266l-0.746-1.27
	l-2.848,0.801c-0.488-0.566-1.012-1.098-1.586-1.574l0.801-2.855l-1.266-0.75l-1.27-0.746l-2.141,2.113
	C19.93,6.289,19.104,6.07,18.248,5.93L17.473,3H16h-1.473l-0.785,2.961c-0.834,0.148-1.641,0.379-2.414,0.676L9.135,4.473
	L7.867,5.219l-1.27,0.75l0.844,2.996c-0.527,0.457-1.02,0.949-1.471,1.477L2.969,9.598l-0.748,1.27l-0.748,1.266l2.205,2.238
	c-0.283,0.754-0.498,1.539-0.641,2.352L0,17.527V19v1.473l3.033,0.805c0.141,0.812,0.355,1.602,0.639,2.359l-2.199,2.23l0.748,1.266
	l0.748,1.266l2.986-0.836c0.453,0.535,0.949,1.031,1.48,1.488l-0.838,2.98l1.268,0.746l1.268,0.75l2.178-2.148
	c0.781,0.301,1.596,0.531,2.438,0.684L14.527,35H16h1.473l0.77-2.906c0.865-0.141,1.697-0.363,2.5-0.664l2.125,2.098l1.266-0.75
	l1.266-0.746l-0.797-2.84c0.578-0.48,1.109-1.012,1.598-1.586l2.832,0.793l0.746-1.266l0.746-1.266l-2.055-2.086
	c0.316-0.82,0.551-1.672,0.703-2.559L32,20.473V19v-1.473L29.164,16.777z M16,25.57c-3.629,0-6.57-2.941-6.57-6.57
	s2.941-6.57,6.57-6.57s6.57,2.941,6.57,6.57S19.629,25.57,16,25.57z"/>
</svg>
