<?xml version="1.0" encoding="iso-8859-1"?>
<!-- Generator: Adobe Illustrator 15.0.0, SVG Export Plug-In . SVG Version: 6.00 Build 0)  -->
<!DOCTYPE svg PUBLIC "-//W3C//DTD SVG 1.1//EN" "http://www.w3.org/Graphics/SVG/1.1/DTD/svg11.dtd">
<svg version="1.1" id="Layer_1" xmlns="http://www.w3.org/2000/svg" xmlns:xlink="http://www.w3.org/1999/xlink" x="0px" y="0px"
	 width="32px" height="43px" viewBox="0 0 32 43" style="enable-background:new 0 0 32 43;" xml:space="preserve">
<path style="fill:#010101;" d="M32,13.777c0-2.18-0.793-4.16-2.102-5.695c-1.336-1.684-3.211-2.793-5.312-2.969
	C24.145,5.047,23.695,5,23.234,5c-3.004,0-5.654,1.512-7.232,3.82C14.422,6.512,11.771,5,8.768,5c-0.463,0-0.91,0.047-1.354,0.113
	C5.312,5.289,3.441,6.398,2.102,8.082C0.795,9.617,0,11.598,0,13.777c0,0.074,0,0.418,0,0.508C0,23.707,16.002,33,16.002,33
	S32,23.707,32,14.285c0-0.09-0.008-0.184-0.012-0.273C31.992,13.93,32,13.852,32,13.777z M9.584,8.043
	c-1.709,0-3.418,1.035-4.492,2.387C4.043,11.66,3.404,13.254,3.404,15c0,4.691,5.363,10.211,5.363,10.211
	C5.447,22.371,2,18.484,2,14.566c0-0.074,0-0.348,0-0.41c0-1.746,0.639-3.34,1.688-4.57C4.762,8.234,6.75,7.109,9.035,7.109
	c1.619,0,3.568,0.883,4.518,2.445C12.604,8.676,10.939,8.043,9.584,8.043z"/>
</svg>
