<?xml version="1.0" encoding="iso-8859-1"?>
<!-- Generator: Adobe Illustrator 15.0.0, SVG Export Plug-In . SVG Version: 6.00 Build 0)  -->
<!DOCTYPE svg PUBLIC "-//W3C//DTD SVG 1.1//EN" "http://www.w3.org/Graphics/SVG/1.1/DTD/svg11.dtd">
<svg version="1.1" id="Layer_1" xmlns="http://www.w3.org/2000/svg" xmlns:xlink="http://www.w3.org/1999/xlink" x="0px" y="0px"
	 width="15.602px" height="43px" viewBox="0 0 15.602 43" style="enable-background:new 0 0 15.602 43;" xml:space="preserve">
<path style="fill:#010101;" d="M7.801,3L0,8.258v9.188l4.773,2.586v2.273l1.281,1.137v1.145l-1.281,0.996v1.586l1.281,1.117
	L4.84,29.566v2.957l2.631,2.246v-16.91l0.781,0.004V35l2.477-2.617V20.086l4.873-2.641V8.258L7.801,3z M1.471,12.211L1.758,8.52
	l4.639,3.691H1.471z M7.801,4.836l3.926,2.375l-3.926,3.453L3.875,7.211L7.801,4.836z M9.205,12.211l4.639-3.691l0.285,3.691H9.205z
	"/>
</svg>
