<?xml version="1.0" encoding="iso-8859-1"?>
<!-- Generator: Adobe Illustrator 15.0.0, SVG Export Plug-In . SVG Version: 6.00 Build 0)  -->
<!DOCTYPE svg PUBLIC "-//W3C//DTD SVG 1.1//EN" "http://www.w3.org/Graphics/SVG/1.1/DTD/svg11.dtd">
<svg version="1.1" id="Layer_1" xmlns="http://www.w3.org/2000/svg" xmlns:xlink="http://www.w3.org/1999/xlink" x="0px" y="0px"
	 width="22.703px" height="43px" viewBox="0 0 22.703 43" style="enable-background:new 0 0 22.703 43;" xml:space="preserve">
<g>
	<path style="fill:#010101;" d="M22.703,14.352C22.703,8.082,17.621,3,11.352,3S0,8.082,0,14.352c0,2.988,1.156,5.707,3.043,7.734
		c1.527,1.777,2.285,4.043,2.285,5.398c-0.346,0.113-0.598,0.438-0.598,0.82c0,0.477,0.389,0.867,0.867,0.867
		c-0.479,0-0.867,0.387-0.867,0.867c0,0.477,0.389,0.867,0.867,0.867c-0.479,0-0.867,0.387-0.867,0.867
		c0,0.477,0.389,0.867,0.867,0.867h1.297c0.43,1.668,3.088,2.336,4.457,2.359c1.369-0.023,4.027-0.691,4.457-2.359h1.297
		c0.48,0,0.867-0.391,0.867-0.867c0-0.48-0.387-0.867-0.867-0.867c0.48,0,0.867-0.391,0.867-0.867c0-0.48-0.387-0.867-0.867-0.867
		c0.48,0,0.867-0.391,0.867-0.867c0-0.383-0.254-0.707-0.598-0.82c0-1.355,0.758-3.621,2.285-5.398
		C21.547,20.059,22.703,17.34,22.703,14.352z M15.961,26.648h-4.609H6.74c-0.248-1.488-0.748-3.551-2.541-5.637
		c-1.795-2.09-2.623-4.184-2.623-6.66c0-5.391,4.387-9.773,9.775-9.773c5.391,0,9.773,4.383,9.773,9.773
		c0,2.477-0.828,4.57-2.621,6.66C16.711,23.098,16.211,25.16,15.961,26.648z"/>
	<path style="fill:#010101;" d="M8.951,5.883c-3.748,1.25-6.268,4.746-6.268,8.699c0,1.012,0.164,2.004,0.488,2.953
		c0.141,0.414,0.531,0.676,0.947,0.676c0.105,0,0.215-0.016,0.322-0.055c0.521-0.176,0.801-0.746,0.623-1.266
		c-0.252-0.742-0.379-1.52-0.379-2.309c0-3.09,1.969-5.824,4.898-6.801c0.523-0.176,0.807-0.742,0.633-1.266
		S9.477,5.707,8.951,5.883z"/>
</g>
</svg>
