<?xml version="1.0" encoding="iso-8859-1"?>
<!-- Generator: Adobe Illustrator 15.0.0, SVG Export Plug-In . SVG Version: 6.00 Build 0)  -->
<!DOCTYPE svg PUBLIC "-//W3C//DTD SVG 1.1//EN" "http://www.w3.org/Graphics/SVG/1.1/DTD/svg11.dtd">
<svg version="1.1" id="Layer_1" xmlns="http://www.w3.org/2000/svg" xmlns:xlink="http://www.w3.org/1999/xlink" x="0px" y="0px"
	 width="32px" height="43px" viewBox="0 0 32 43" style="enable-background:new 0 0 32 43;" xml:space="preserve">
<g>
	<g>
		<path style="fill:#010101;" d="M27.18,11.824h-11.15c-2.656,0-4.818,2.16-4.818,4.816v4.719c0,0.164,0.031,0.32,0.049,0.48h3.953
			c-0.084-0.145-0.146-0.305-0.146-0.48v-4.719c0-0.531,0.432-0.961,0.963-0.961h11.15c0.531,0,0.965,0.43,0.965,0.961v4.719
			c0,0.531-0.434,0.961-0.965,0.961h-5.922c-0.316,1.719-1.465,3.148-3.012,3.855h8.934c2.656,0,4.82-2.16,4.82-4.816v-4.719
			C32,13.984,29.836,11.824,27.18,11.824z"/>
	</g>
	<path style="fill:#010101;" d="M16.787,16.16c0.084,0.145,0.146,0.305,0.146,0.48v4.719c0,0.531-0.432,0.961-0.963,0.961H4.818
		c-0.531,0-0.963-0.43-0.963-0.961v-4.719c0-0.531,0.432-0.961,0.963-0.961h6.008c0.293-1.699,1.395-3.121,2.895-3.855H4.818
		C2.162,11.824,0,13.984,0,16.641v4.719c0,2.656,2.162,4.816,4.818,4.816h11.152c2.656,0,4.818-2.16,4.818-4.816v-4.719
		c0-0.164-0.031-0.32-0.047-0.48H16.787z"/>
</g>
</svg>
