<?xml version="1.0" encoding="iso-8859-1"?>
<!-- Generator: Adobe Illustrator 15.0.0, SVG Export Plug-In . SVG Version: 6.00 Build 0)  -->
<!DOCTYPE svg PUBLIC "-//W3C//DTD SVG 1.1//EN" "http://www.w3.org/Graphics/SVG/1.1/DTD/svg11.dtd">
<svg version="1.1" id="Layer_1" xmlns="http://www.w3.org/2000/svg" xmlns:xlink="http://www.w3.org/1999/xlink" x="0px" y="0px"
	 width="32px" height="43px" viewBox="0 0 32 43" style="enable-background:new 0 0 32 43;" xml:space="preserve">
<path style="fill:#010101;" d="M30.5,3h-21C8.676,3,8,3.672,8,4.5V11H1.5C0.676,11,0,11.672,0,12.5v21C0,34.328,0.676,35,1.5,35h21
	c0.824,0,1.5-0.672,1.5-1.5V27h6.5c0.824,0,1.5-0.672,1.5-1.5v-21C32,3.672,31.324,3,30.5,3z M22.5,33.312h-21v-16h21V33.312z
	 M30.5,25.312H24V12.5c0-0.828-0.676-1.5-1.5-1.5h-13V9.312h21V25.312z"/>
</svg>
