<?xml version="1.0" encoding="iso-8859-1"?>
<!-- Generator: Adobe Illustrator 15.0.0, SVG Export Plug-In . SVG Version: 6.00 Build 0)  -->
<!DOCTYPE svg PUBLIC "-//W3C//DTD SVG 1.1//EN" "http://www.w3.org/Graphics/SVG/1.1/DTD/svg11.dtd">
<svg version="1.1" id="Layer_1" xmlns="http://www.w3.org/2000/svg" xmlns:xlink="http://www.w3.org/1999/xlink" x="0px" y="0px"
	 width="32px" height="43px" viewBox="0 0 32 43" style="enable-background:new 0 0 32 43;" xml:space="preserve">
<path style="fill:#010101;" d="M16,3C7.164,3,0,10.164,0,19s7.164,16,16,16s16-7.164,16-16S24.836,3,16,3z M14.125,9.625
	c0-1.035,0.84-1.875,1.875-1.875s1.875,0.84,1.875,1.875v8c0,1.035-0.84,1.875-1.875,1.875s-1.875-0.84-1.875-1.875V9.625z
	 M16,29.625c-5.857,0-10.625-4.766-10.625-10.625c0-3.535,1.752-6.828,4.684-8.812c0.688-0.461,1.619-0.281,2.082,0.406
	s0.283,1.617-0.402,2.082C9.631,14.098,8.375,16.461,8.375,19c0,4.203,3.42,7.625,7.625,7.625c4.203,0,7.625-3.422,7.625-7.625
	c0-2.539-1.258-4.902-3.363-6.324c-0.686-0.465-0.865-1.395-0.402-2.082c0.461-0.688,1.395-0.867,2.082-0.406
	c2.934,1.984,4.684,5.277,4.684,8.812C26.625,24.859,21.859,29.625,16,29.625z"/>
</svg>
