<?xml version="1.0" encoding="iso-8859-1"?>
<!-- Generator: Adobe Illustrator 15.0.0, SVG Export Plug-In . SVG Version: 6.00 Build 0)  -->
<!DOCTYPE svg PUBLIC "-//W3C//DTD SVG 1.1//EN" "http://www.w3.org/Graphics/SVG/1.1/DTD/svg11.dtd">
<svg version="1.1" id="Layer_1" xmlns="http://www.w3.org/2000/svg" xmlns:xlink="http://www.w3.org/1999/xlink" x="0px" y="0px"
	 width="31.861px" height="43px" viewBox="0 0 31.861 43" style="enable-background:new 0 0 31.861 43;" xml:space="preserve">
<path style="fill:#010101;" d="M31.197,8.242h-4.578V3.664C26.619,3.297,26.322,3,25.955,3H5.99C5.623,3,5.324,3.297,5.324,3.664
	v4.578H0.666C0.299,8.242,0,8.539,0,8.906v14.641c0,0.367,0.299,0.668,0.666,0.668h4.576v4.434L11.484,35h12.393h2.664v-2.66v-8.125
	h4.656c0.367,0,0.664-0.301,0.664-0.668V8.906C31.861,8.539,31.564,8.242,31.197,8.242z M5.242,21.637H2.664v-5.328h2.578V21.637z
	 M7.904,6.246c0-0.367,0.299-0.668,0.666-0.668h14.721c0.371,0,0.668,0.301,0.668,0.668v1.996H7.904V6.246z M22.963,12.316
	c0,0.598-0.484,1.082-1.086,1.082c-0.594,0-1.078-0.484-1.078-1.082s0.484-1.082,1.078-1.082
	C22.479,11.234,22.963,11.719,22.963,12.316z M23.877,16.309V32.34H12.729v-5.492H7.904V16.309v-0.082h15.973V16.309z
	 M24.916,13.398c-0.594,0-1.078-0.484-1.078-1.082s0.484-1.082,1.078-1.082c0.602,0,1.086,0.484,1.086,1.082
	S25.518,13.398,24.916,13.398z M29.201,21.637h-2.66v-5.328h2.66V21.637z"/>
</svg>
