<?xml version="1.0" encoding="iso-8859-1"?>
<!-- Generator: Adobe Illustrator 15.0.0, SVG Export Plug-In . SVG Version: 6.00 Build 0)  -->
<!DOCTYPE svg PUBLIC "-//W3C//DTD SVG 1.1//EN" "http://www.w3.org/Graphics/SVG/1.1/DTD/svg11.dtd">
<svg version="1.1" id="Layer_1" xmlns="http://www.w3.org/2000/svg" xmlns:xlink="http://www.w3.org/1999/xlink" x="0px" y="0px"
	 width="32px" height="43px" viewBox="0 0 32 43" style="enable-background:new 0 0 32 43;" xml:space="preserve">
<path style="fill:#010101;" d="M26.125,12.438v-9.5H5.875v9.5H0v16h7v6.625h18v-6.625h7v-16H26.125z M3.188,20.492
	c-0.582,0-1.055-0.473-1.055-1.055s0.473-1.055,1.055-1.055s1.055,0.473,1.055,1.055S3.77,20.492,3.188,20.492z M7,25.039H5.375
	c-0.293,0-0.531-0.234-0.531-0.531c0-0.289,0.238-0.531,0.531-0.531H7V25.039z M23,33.062H9v-8.961h14V33.062z M24.125,15.312H7.875
	V4.938h16.25V15.312z M26.625,25.039H25v-1.062h1.625c0.293,0,0.531,0.242,0.531,0.531C27.156,24.805,26.918,25.039,26.625,25.039z"
	/>
</svg>
