<?xml version="1.0" encoding="iso-8859-1"?>
<!-- Generator: Adobe Illustrator 15.0.0, SVG Export Plug-In . SVG Version: 6.00 Build 0)  -->
<!DOCTYPE svg PUBLIC "-//W3C//DTD SVG 1.1//EN" "http://www.w3.org/Graphics/SVG/1.1/DTD/svg11.dtd">
<svg version="1.1" id="Layer_1" xmlns="http://www.w3.org/2000/svg" xmlns:xlink="http://www.w3.org/1999/xlink" x="0px" y="0px"
	 width="32px" height="43px" viewBox="0 0 32 43" style="enable-background:new 0 0 32 43;" xml:space="preserve">
<g>
	<rect x="8.322" y="9.168" style="fill:#010101;" width="8.092" height="1.125"/>
	<rect x="8.322" y="11.672" style="fill:#010101;" width="14.865" height="1.129"/>
	<rect x="8.322" y="14.176" style="fill:#010101;" width="14.865" height="1.129"/>
	<rect x="8.322" y="16.684" style="fill:#010101;" width="14.865" height="1.129"/>
	<rect x="8.322" y="19.188" style="fill:#010101;" width="14.865" height="1.129"/>
	<rect x="8.322" y="21.695" style="fill:#010101;" width="14.865" height="1.129"/>
	<rect x="8.322" y="24.199" style="fill:#010101;" width="14.865" height="1.129"/>
	<rect x="8.322" y="26.707" style="fill:#010101;" width="8.092" height="1.125"/>
	<path style="fill:#010101;" d="M29.625,3.07C29.406,3.031,29.047,3.008,28.508,3c-0.035,0-0.066,0-0.102,0l0,0
		c-0.016,0-0.023,0-0.035,0C22.191,3,8.979,3,7.863,3c-1.457,0-3.91,1-3.91,4.039s0,17.918,0,20.098
		c0,3.113-2.611,3.816-3.953,3.816C0,32.508,2.418,35,3.875,35s18.414,0,19.871,0s3.762-1.945,3.762-3.969
		c0-1.711,0-20.875,0-23.691H32V6.688C32,4.469,31.742,3.348,29.625,3.07z M3.875,33.699c-0.469,0-1.453-0.816-2.066-1.625h17.406
		c0.188,0.512,0.521,1.105,1.035,1.625H3.875z M26.227,7.039v23.992c0,1.301-1.723,2.668-2.48,2.668h-0.715
		c-2.266-0.418-2.812-2.738-2.812-2.738H3.613c0.963-0.84,1.619-2.102,1.619-3.824V7.039c0-2.707,2.605-2.738,2.631-2.738h19.258
		C26.527,5.25,26.227,6.281,26.227,7.039z M27.711,6.039c0.195-0.578,0.547-1.219,1.047-1.766c1.707,0.031,1.934,0.344,1.961,1.766
		H27.711z"/>
</g>
</svg>
