<?xml version="1.0" encoding="iso-8859-1"?>
<!-- Generator: Adobe Illustrator 15.0.0, SVG Export Plug-In . SVG Version: 6.00 Build 0)  -->
<!DOCTYPE svg PUBLIC "-//W3C//DTD SVG 1.1//EN" "http://www.w3.org/Graphics/SVG/1.1/DTD/svg11.dtd">
<svg version="1.1" id="Layer_1" xmlns="http://www.w3.org/2000/svg" xmlns:xlink="http://www.w3.org/1999/xlink" x="0px" y="0px"
	 width="32px" height="43px" viewBox="0 0 32 43" style="enable-background:new 0 0 32 43;" xml:space="preserve">
<g>
	<path style="fill:#010101;" d="M30.5,9H25v2.031h7V10.5C32,9.676,31.328,9,30.5,9z"/>
	<rect x="10.812" y="9" style="fill:#010101;" width="10.125" height="2.031"/>
	<path style="fill:#010101;" d="M7.375,9H1.5C0.674,9,0,9.676,0,10.5v0.531h7.375V9z"/>
	<path style="fill:#010101;" d="M24,5H8v7.031H0V31.5C0,32.324,0.674,33,1.5,33h29c0.828,0,1.5-0.676,1.5-1.5V12.031h-8V5z M19,19
		h-6v-3h6V19z M22,12.031H9.938V7H22V12.031z"/>
</g>
</svg>
