<?xml version="1.0" encoding="iso-8859-1"?>
<!-- Generator: Adobe Illustrator 15.0.0, SVG Export Plug-In . SVG Version: 6.00 Build 0)  -->
<!DOCTYPE svg PUBLIC "-//W3C//DTD SVG 1.1//EN" "http://www.w3.org/Graphics/SVG/1.1/DTD/svg11.dtd">
<svg version="1.1" id="Layer_1" xmlns="http://www.w3.org/2000/svg" xmlns:xlink="http://www.w3.org/1999/xlink" x="0px" y="0px"
	 width="27.734px" height="43px" viewBox="0 0 27.734 43" style="enable-background:new 0 0 27.734 43;" xml:space="preserve">
<g>
	<g>
		<path style="fill:#010101;" d="M19.5,6.984V3H8.234v3.984c-5.037,0-8.234,0-8.234,0v5.582c0,0,0.07,0,0.199,0
			c0.287,0,27.051,0,27.336,0c0.129,0,0.199,0,0.199,0V6.984C27.734,6.984,24.539,6.984,19.5,6.984z M17.271,6.984
			c-1.078,0-2.213,0-3.406,0c-1.191,0-2.324,0-3.4,0V4.82h6.807V6.984z"/>
	</g>
	<g>
		<polygon style="fill:#010101;" points="2.188,14.148 3.951,35 13.865,35 23.867,35 25.562,14.148 		"/>
	</g>
</g>
</svg>
