<?xml version="1.0" encoding="iso-8859-1"?>
<!-- Generator: Adobe Illustrator 15.0.0, SVG Export Plug-In . SVG Version: 6.00 Build 0)  -->
<!DOCTYPE svg PUBLIC "-//W3C//DTD SVG 1.1//EN" "http://www.w3.org/Graphics/SVG/1.1/DTD/svg11.dtd">
<svg version="1.1" id="Layer_1" xmlns="http://www.w3.org/2000/svg" xmlns:xlink="http://www.w3.org/1999/xlink" x="0px" y="0px"
	 width="31.999px" height="43px" viewBox="0 0 31.999 43" style="enable-background:new 0 0 31.999 43;" xml:space="preserve">
<g>
	<path d="M31.82,31.845L16.77,5.36c-0.424-0.742-1.115-0.742-1.537,0L0.179,31.845c-0.424,0.742-0.07,1.352,0.785,1.352h13.481
		c0.855,0,2.254,0,3.109,0h13.48C31.891,33.196,32.242,32.587,31.82,31.845z M28.941,31.856H17.338c-0.736,0-1.939,0-2.676,0H3.058
		c-0.736,0-1.041-0.523-0.676-1.164L15.338,7.896C15.52,7.579,15.76,7.419,16,7.419s0.48,0.16,0.662,0.477l12.955,22.797
		C29.984,31.333,29.676,31.856,28.941,31.856z"/>
	<path d="M29.164,30.95L16.211,8.153C16.117,7.989,16.029,7.935,16,7.935c-0.027,0-0.117,0.055-0.211,0.219L2.832,30.95
		c-0.092,0.16-0.096,0.27-0.076,0.305c0.02,0.031,0.117,0.082,0.303,0.082h11.604h2.676h11.604c0.184,0,0.285-0.051,0.301-0.082
		C29.266,31.22,29.258,31.11,29.164,30.95z M16,28.454c-0.859,0-1.555-0.699-1.555-1.555c0-0.859,0.695-1.559,1.555-1.559
		s1.555,0.699,1.555,1.559C17.555,27.755,16.859,28.454,16,28.454z M17.49,24.048h-1.426h-1.426l-0.193-9.594h1.619h1.621
		L17.49,24.048z"/>
</g>
</svg>
