<?xml version="1.0" encoding="iso-8859-1"?>
<!-- Generator: Adobe Illustrator 15.0.0, SVG Export Plug-In . SVG Version: 6.00 Build 0)  -->
<!DOCTYPE svg PUBLIC "-//W3C//DTD SVG 1.1//EN" "http://www.w3.org/Graphics/SVG/1.1/DTD/svg11.dtd">
<svg version="1.1" id="Layer_1" xmlns="http://www.w3.org/2000/svg" xmlns:xlink="http://www.w3.org/1999/xlink" x="0px" y="0px"
	 width="23.991px" height="43px" viewBox="0 0 23.991 43" style="enable-background:new 0 0 23.991 43;" xml:space="preserve">
<path d="M12.214,33.375l2.043-2.047l-2.723-2.727c3.223,0.125,6.48-1.031,8.941-3.492c4.688-4.684,4.688-12.285,0-16.969
	c-4.686-4.688-12.282-4.688-16.968,0c-3.711,3.711-4.473,9.238-2.309,13.707l2.293-2.293c-1.078-3.152-0.375-6.785,2.137-9.293
	c3.507-3.508,9.218-3.508,12.726,0s3.508,9.219,0,12.727c-2.016,2.02-4.762,2.867-7.398,2.566l2.801-2.797l-2.047-2.051l-3.89,3.891
	l0,0l-2.191,2.191l0,0l0,0L12.214,33.375z"/>
</svg>
