<?xml version="1.0" encoding="iso-8859-1"?>
<!-- Generator: Adobe Illustrator 15.0.0, SVG Export Plug-In . SVG Version: 6.00 Build 0)  -->
<!DOCTYPE svg PUBLIC "-//W3C//DTD SVG 1.1//EN" "http://www.w3.org/Graphics/SVG/1.1/DTD/svg11.dtd">
<svg version="1.1" id="Layer_1" xmlns="http://www.w3.org/2000/svg" xmlns:xlink="http://www.w3.org/1999/xlink" x="0px" y="0px"
	 width="28.749px" height="43px" viewBox="0 0 28.749 43" style="enable-background:new 0 0 28.749 43;" xml:space="preserve">
<path d="M28.749,18.781l-2.047-2.043l-2.727,2.723c0.125-3.222-1.031-6.479-3.492-8.94c-4.686-4.688-12.283-4.688-16.969,0
	s-4.688,12.28,0,16.967c3.711,3.711,9.238,4.473,13.709,2.309l-2.293-2.293c-3.152,1.078-6.785,0.375-9.295-2.137
	c-3.508-3.507-3.51-9.217,0-12.725c3.51-3.512,9.219-3.508,12.729,0c2.018,2.02,2.869,4.761,2.564,7.397l-2.797-2.801l-2.049,2.047
	l3.893,3.89l0,0l2.188,2.191l0,0l0,0L28.749,18.781z"/>
</svg>
