<?xml version="1.0" encoding="iso-8859-1"?>
<!-- Generator: Adobe Illustrator 15.0.0, SVG Export Plug-In . SVG Version: 6.00 Build 0)  -->
<!DOCTYPE svg PUBLIC "-//W3C//DTD SVG 1.1//EN" "http://www.w3.org/Graphics/SVG/1.1/DTD/svg11.dtd">
<svg version="1.1" id="Layer_1" xmlns="http://www.w3.org/2000/svg" xmlns:xlink="http://www.w3.org/1999/xlink" x="0px" y="0px"
	 width="32px" height="43px" viewBox="0 0 32 43" style="enable-background:new 0 0 32 43;" xml:space="preserve">
<path style="fill:#010101;" d="M16,3C7.164,3,0,10.164,0,19s7.164,16,16,16s16-7.164,16-16S24.836,3,16,3z M3.607,19
	C3.607,12.156,9.156,6.609,16,6.609c2.699,0,5.188,0.871,7.227,2.336L5.947,26.227C4.482,24.188,3.607,21.699,3.607,19z M16,31.391
	c-2.699,0-5.189-0.871-7.225-2.336l17.279-17.281c1.465,2.035,2.336,4.527,2.336,7.227C28.391,25.844,22.844,31.391,16,31.391z"/>
</svg>
