<?xml version="1.0" encoding="iso-8859-1"?>
<!-- Generator: Adobe Illustrator 15.0.0, SVG Export Plug-In . SVG Version: 6.00 Build 0)  -->
<!DOCTYPE svg PUBLIC "-//W3C//DTD SVG 1.1//EN" "http://www.w3.org/Graphics/SVG/1.1/DTD/svg11.dtd">
<svg version="1.1" id="Layer_1" xmlns="http://www.w3.org/2000/svg" xmlns:xlink="http://www.w3.org/1999/xlink" x="0px" y="0px"
	 width="24px" height="43px" viewBox="0 0 24 43" style="enable-background:new 0 0 24 43;" xml:space="preserve">
<g>
	<polygon style="fill:#010101;" points="20,5.086 16.016,5.086 16.016,3 8.016,3 8.016,5.086 4,5.086 4,10.051 20,10.051 	"/>
	<path style="fill:#010101;" d="M21.02,7v4.051h-18V7H0v28h24V7H21.02z M4.119,13.5h5.5v1.035h-5.5V13.5z M19.969,30.922H12.07
		v-1.039h7.898V30.922z M19.969,28.578H4.119v-1.035h15.85V28.578z M19.969,26.238H4.119v-1.035h15.85V26.238z M19.969,23.898H4.119
		v-1.035h15.85V23.898z M19.969,21.559H4.119v-1.035h15.85V21.559z M19.969,19.219H4.119V18.18h15.85V19.219z M19.969,16.875H4.119
		v-1.031h15.85V16.875z"/>
</g>
</svg>
