<?xml version="1.0" encoding="iso-8859-1"?>
<!-- Generator: Adobe Illustrator 15.0.0, SVG Export Plug-In . SVG Version: 6.00 Build 0)  -->
<!DOCTYPE svg PUBLIC "-//W3C//DTD SVG 1.1//EN" "http://www.w3.org/Graphics/SVG/1.1/DTD/svg11.dtd">
<svg version="1.1" id="Layer_1" xmlns="http://www.w3.org/2000/svg" xmlns:xlink="http://www.w3.org/1999/xlink" x="0px" y="0px"
	 width="32px" height="43px" viewBox="0 0 32 43" style="enable-background:new 0 0 32 43;" xml:space="preserve">
<g>
	<path style="fill:#010101;" d="M17.402,19c0-0.469-0.234-0.883-0.586-1.133V9.172h-1.633v8.695
		c-0.352,0.25-0.586,0.664-0.586,1.133c0,0.773,0.629,1.398,1.402,1.398c0.049,0,0.096-0.008,0.145-0.012l6.133,6.133l1.156-1.152
		l-6.066-6.066C17.389,19.203,17.402,19.102,17.402,19z"/>
	<path style="fill:#010101;" d="M16,3C7.164,3,0,10.164,0,19s7.164,16,16,16s16-7.164,16-16S24.836,3,16,3z M16,31.469
		C9.113,31.469,3.531,25.887,3.531,19S9.113,6.531,16,6.531S28.469,12.113,28.469,19S22.887,31.469,16,31.469z"/>
</g>
</svg>
