<?xml version="1.0" encoding="iso-8859-1"?>
<!-- Generator: Adobe Illustrator 15.0.0, SVG Export Plug-In . SVG Version: 6.00 Build 0)  -->
<!DOCTYPE svg PUBLIC "-//W3C//DTD SVG 1.1//EN" "http://www.w3.org/Graphics/SVG/1.1/DTD/svg11.dtd">
<svg version="1.1" id="Layer_1" xmlns="http://www.w3.org/2000/svg" xmlns:xlink="http://www.w3.org/1999/xlink" x="0px" y="0px"
	 width="25.992px" height="43px" viewBox="0 0 25.992 43" style="enable-background:new 0 0 25.992 43;" xml:space="preserve">
<g>
	<rect x="3.535" y="15.262" style="fill:#010101;" width="6.082" height="0.848"/>
	<rect x="3.535" y="19.027" style="fill:#010101;" width="11.172" height="0.848"/>
	<rect x="3.535" y="20.91" style="fill:#010101;" width="11.172" height="0.848"/>
	<rect x="3.535" y="22.793" style="fill:#010101;" width="11.172" height="0.848"/>
	<rect x="3.535" y="24.676" style="fill:#010101;" width="11.172" height="0.848"/>
	<rect x="3.535" y="26.559" style="fill:#010101;" width="11.172" height="0.848"/>
	<rect x="3.535" y="28.441" style="fill:#010101;" width="11.172" height="0.852"/>
	<rect x="3.535" y="30.324" style="fill:#010101;" width="6.082" height="0.852"/>
	<rect x="11.43" y="7.34" style="fill:#010101;" width="6.082" height="0.848"/>
	<path style="fill:#010101;" d="M21.047,5.129L18.914,3v0.023L18.887,3H7.953v7.949H0V35h18.039v-7.953h7.953V10.016L21.047,5.129z
		 M17.035,33.996H1.004V11.953h9.965v5.191H3.535v0.848h7.434v0.027h6.066V33.996z M24.988,26.043h-6.949v-4.672h4.566V20.52h-4.566
		v-1.035h4.566v-0.848h-4.566v-0.672l-0.367-0.363h4.934v-0.848h-5.793l-1.047-1.035h6.84v-0.848h-7.699l-1.047-1.035h8.746v-0.848
		h-9.598l-1.035-1.035h10.633v-0.848H11.43v0.309l-0.461-0.465v0.031l-0.031-0.031h-1.98V4h9.957v5.223H11.43v0.848h7.484v0.004
		h6.074V26.043z"/>
</g>
</svg>
