<?xml version="1.0" encoding="iso-8859-1"?>
<!-- Generator: Adobe Illustrator 15.0.0, SVG Export Plug-In . SVG Version: 6.00 Build 0)  -->
<!DOCTYPE svg PUBLIC "-//W3C//DTD SVG 1.1//EN" "http://www.w3.org/Graphics/SVG/1.1/DTD/svg11.dtd">
<svg version="1.1" id="Layer_1" xmlns="http://www.w3.org/2000/svg" xmlns:xlink="http://www.w3.org/1999/xlink" x="0px" y="0px"
	 width="32px" height="43px" viewBox="0 0 32 43" style="enable-background:new 0 0 32 43;" xml:space="preserve">
<g>
	<g>
		<rect x="18.666" y="5.562" style="fill:#010101;" width="2.803" height="5.438"/>
	</g>
	<g>
		<g>
			<path style="fill:#010101;" d="M28,3H1.334C0.121,3,0,3.113,0,4.332v29.336C0,34.883,0.121,35,1.334,35h29.33
				C31.883,35,32,34.883,32,33.668V7L28,3z M8,4.332h16v6.562c0,0.625-0.719,1.438-1.336,1.438H9.334C8.715,12.332,8,11.52,8,10.895
				V4.332z M26.805,33.559H5.471V21.562c0-0.84,0.496-1.332,1.334-1.332h18.664c0.844,0,1.336,0.492,1.336,1.332V33.559z"/>
		</g>
	</g>
</g>
</svg>
