<?xml version="1.0" encoding="iso-8859-1"?>
<!-- Generator: Adobe Illustrator 15.0.0, SVG Export Plug-In . SVG Version: 6.00 Build 0)  -->
<!DOCTYPE svg PUBLIC "-//W3C//DTD SVG 1.1//EN" "http://www.w3.org/Graphics/SVG/1.1/DTD/svg11.dtd">
<svg version="1.1" id="Layer_1" xmlns="http://www.w3.org/2000/svg" xmlns:xlink="http://www.w3.org/1999/xlink" x="0px" y="0px"
	 width="32px" height="43px" viewBox="0 0 32 43" style="enable-background:new 0 0 32 43;" xml:space="preserve">
<g>
	<polygon style="fill:#010101;" points="0,8.16 17.576,35 19.25,33.898 1.674,7.059 	"/>
	<path style="fill:#010101;" d="M11.967,5.883C7.711,2.75,3.203,7.258,3.203,7.258l10.143,14.648c0,0,4.506-4.508,8.764-1.375
		c0.023,0.02,0.055,0.031,0.078,0.051L12.893,6.469C12.586,6.301,12.277,6.109,11.967,5.883z"/>
	<path style="fill:#010101;" d="M21.859,3c-1.418,2.734-4.225,4.973-7.498,4.078l9.506,14.43c3.539,1.391,6.625-0.949,8.133-3.859
		L21.859,3z"/>
</g>
</svg>
