<?xml version="1.0" encoding="iso-8859-1"?>
<!-- Generator: Adobe Illustrator 15.0.0, SVG Export Plug-In . SVG Version: 6.00 Build 0)  -->
<!DOCTYPE svg PUBLIC "-//W3C//DTD SVG 1.1//EN" "http://www.w3.org/Graphics/SVG/1.1/DTD/svg11.dtd">
<svg version="1.1" id="Layer_1" xmlns="http://www.w3.org/2000/svg" xmlns:xlink="http://www.w3.org/1999/xlink" x="0px" y="0px"
	 width="32px" height="43px" viewBox="0 0 32 43" style="enable-background:new 0 0 32 43;" xml:space="preserve">
<path style="fill:#010101;" d="M16,3C7.164,3,0,10.164,0,19s7.164,16,16,16s16-7.164,16-16S24.836,3,16,3z M15.666,29.336
	c-1.379,0-2.5-1.121-2.5-2.5c0-1.383,1.121-2.5,2.5-2.5c1.383,0,2.5,1.117,2.5,2.5C18.166,28.215,17.049,29.336,15.666,29.336z
	 M17.318,20.859v1.891h-3V18h1.5c2.715,0,3.682-1.895,3.682-3.664c0-2.484-2.002-3.004-3.682-3.004
	c-1.658,0-3.443,0.965-3.443,3.082h-3c0-3.465,2.771-6.082,6.443-6.082c4.059,0,6.682,2.355,6.682,6.004
	C22.5,17.738,20.434,20.25,17.318,20.859z"/>
</svg>
