<?xml version="1.0" encoding="iso-8859-1"?>
<!-- Generator: Adobe Illustrator 15.0.0, SVG Export Plug-In . SVG Version: 6.00 Build 0)  -->
<!DOCTYPE svg PUBLIC "-//W3C//DTD SVG 1.1//EN" "http://www.w3.org/Graphics/SVG/1.1/DTD/svg11.dtd">
<svg version="1.1" id="Layer_1" xmlns="http://www.w3.org/2000/svg" xmlns:xlink="http://www.w3.org/1999/xlink" x="0px" y="0px"
	 width="32px" height="43px" viewBox="0 0 32 43" style="enable-background:new 0 0 32 43;" xml:space="preserve">
<g>
	<path style="fill:#010101;" d="M0,5v28h32V5H0z M30.094,30.719H1.906V7.281h28.188V30.719z"/>
	<path style="fill:#010101;" d="M12.875,21.875H7.562l2.066,3.465c0.238-0.031,0.492-0.051,0.777-0.051
		c0.391,0,0.801,0.027,1.223,0.09c1.258,0.18,2.295,0.27,3.082,0.27c0.555,0,0.973-0.047,1.242-0.137
		c0.568-0.188,1.561-0.215,2.102-0.215c1.086,0,2.16,0.105,2.734,0.273c0.223,0.066,0.453,0.102,0.711,0.102
		c0.434,0,0.879-0.102,1.305-0.227l2.133-3.57h-5.312H12.875z"/>
	<path style="fill:#010101;" d="M29.594,25.188c0,0-1.438,0.75-2.438,0.562s-2.375-0.688-3.312-0.375s-2.062,0.75-3.125,0.438
		s-3.75-0.375-4.688-0.062s-3.125,0.062-4.438-0.125s-2.438-0.062-2.875,0.25s-1.625-0.312-2.125-0.438
		c-0.502-0.125-1.688,0.75-2.252,0.188c-0.561-0.562-1.936-0.5-1.936-0.5v5.188h27.188V25.188z"/>
	<polygon style="fill:#010101;" points="22,19.375 17,11 17.812,20.5 	"/>
	<path style="fill:#010101;" d="M14.062,20.438l1.656-10.367v10.68h-2.844H6.438L7,21.688h5.875h6.75H25.5l0.562-0.938h-6.438
		h-2.844V8.781c0-0.293-0.238-0.531-0.531-0.531s-0.531,0.238-0.531,0.531v1.133l-6.906,8.211L14.062,20.438z"/>
	<path style="fill:#010101;" d="M21.633,13.426c0,0,0.09,0.363,0.617,0.688s1.441-0.152,1.441-0.152s0.129,0.547,0.844,0.57
		c0.711,0.02,1.172-0.477,1.172-0.477c0.465,0.34,1.059,0.391,1.574,0.137s0.527-1.027,0.527-1.027s0.789-0.188,0.781-1.023
		c-0.008-0.832-0.934-0.93-0.934-0.93c-0.324-0.82-1.766-0.414-1.766-0.414s-0.633-0.746-1.68-0.562
		c-1.047,0.188-1.203,0.867-1.203,0.867c-0.699,0.039-1.055,0.703-1.055,0.703c-0.484-0.141-1.227,0.012-1.25,0.688
		C20.68,13.203,21.633,13.426,21.633,13.426z"/>
	<path style="fill:#010101;" d="M4.625,12.688c0,0-0.188,0.312,0.625,0.875S7.186,13.5,7.186,13.5s0.189,0.5,1.377,0.438
		s1.688-0.75,1.688-0.75s1-0.312,1.25-1s-0.938-1.125-0.938-1.125c-0.5-1.062-1.688-0.438-1.688-0.438S8.188,9.562,7.438,9.562
		c-0.689,0-1,0.438-1,0.438s-0.25-0.938-1.439-0.75c-1.186,0.188-1.373,1.312-1.373,1.312s-0.75,0.438-0.75,1.25
		S4.625,12.688,4.625,12.688z"/>
</g>
</svg>
