<?xml version="1.0" encoding="iso-8859-1"?>
<!-- Generator: Adobe Illustrator 15.0.0, SVG Export Plug-In . SVG Version: 6.00 Build 0)  -->
<!DOCTYPE svg PUBLIC "-//W3C//DTD SVG 1.1//EN" "http://www.w3.org/Graphics/SVG/1.1/DTD/svg11.dtd">
<svg version="1.1" id="Layer_1" xmlns="http://www.w3.org/2000/svg" xmlns:xlink="http://www.w3.org/1999/xlink" x="0px" y="0px"
	 width="32px" height="43px" viewBox="0 0 32 43" style="enable-background:new 0 0 32 43;" xml:space="preserve">
<g>
	<path style="fill:#010101;" d="M0,6.5v25h32v-25H0z M30.094,29.219H1.906V8.781h28.188V29.219z"/>
	<g>
		<path style="fill:#010101;" d="M3.139,21.711v6.602h8.666c0,0-0.137-2.133,2.613-2.961c2.752-0.828,1.789-1.516,1.445-2.266
			c-0.344-0.758,1.582-1.586,3.508-1.586s1.926-1.648,3.027-1.648c1.098,0,3.918,0,3.918,0s-3.715-1.031-5.02-1.93
			c-1.309-0.891-3.783-2.477-4.609-2.133c-0.824,0.344-1.719,1.93-2.82,1.375c-1.1-0.547-4.129-3.438-5.367-2.477
			s-2.266,2.82-3.16,2.203s-1.102-1.648-2.201-1.648V21.711z"/>
		<path style="fill:#010101;" d="M12.699,28.312h16.16V19.75c0,0-1.281-0.078-1.719,0.172c-0.43,0.242,0.07,0.477-1.375,0.477
			s-3.023-0.406-3.711,0.344c-0.688,0.758-1.172,1.445-2.615,1.445c-1.445,0-3.232,0.141-2.27,1.648
			c0.963,1.516-1.102,1.789-1.926,1.93C14.418,25.906,12.699,26.727,12.699,28.312z"/>
	</g>
	<circle style="fill:#010101;" cx="25.123" cy="12.383" r="1.572"/>
</g>
</svg>
