<?xml version="1.0" encoding="iso-8859-1"?>
<!-- Generator: Adobe Illustrator 15.0.0, SVG Export Plug-In . SVG Version: 6.00 Build 0)  -->
<!DOCTYPE svg PUBLIC "-//W3C//DTD SVG 1.1//EN" "http://www.w3.org/Graphics/SVG/1.1/DTD/svg11.dtd">
<svg version="1.1" id="Layer_1" xmlns="http://www.w3.org/2000/svg" xmlns:xlink="http://www.w3.org/1999/xlink" x="0px" y="0px"
	 width="16.516px" height="43px" viewBox="0 0 16.516 43" style="enable-background:new 0 0 16.516 43;" xml:space="preserve">
<path style="fill:#010101;" d="M16.516,11.262C16.516,6.699,12.82,3,8.258,3C3.697,3,0,6.699,0,11.262
	c0,3.34,1.988,6.211,4.844,7.512v2.688l3.414,2.488l-3.414,2.492l3.414,2.531l-3.406,2.484L8.258,35l3.414-3.551V18.773
	C14.527,17.473,16.516,14.602,16.516,11.262z M8.258,5.363c1.021,0,1.85,0.824,1.85,1.848c0,1.02-0.828,1.848-1.85,1.848
	s-1.85-0.828-1.85-1.848C6.408,6.188,7.236,5.363,8.258,5.363z"/>
</svg>
