<?xml version="1.0" encoding="iso-8859-1"?>
<!-- Generator: Adobe Illustrator 15.0.0, SVG Export Plug-In . SVG Version: 6.00 Build 0)  -->
<!DOCTYPE svg PUBLIC "-//W3C//DTD SVG 1.1//EN" "http://www.w3.org/Graphics/SVG/1.1/DTD/svg11.dtd">
<svg version="1.1" id="Layer_1" xmlns="http://www.w3.org/2000/svg" xmlns:xlink="http://www.w3.org/1999/xlink" x="0px" y="0px"
	 width="32px" height="43px" viewBox="0 0 32 43" style="enable-background:new 0 0 32 43;" xml:space="preserve">
<g>
	<path style="fill:#010101;" d="M17.221,11.777c0,0.551-0.449,1-1,1h-0.443c-0.551,0-1-0.449-1-1V4c0-0.551,0.449-1,1-1h0.443
		c0.551,0,1,0.449,1,1V11.777z"/>
	<path style="fill:#010101;" d="M17.221,34c0,0.551-0.449,1-1,1h-0.443c-0.551,0-1-0.449-1-1v-7.777c0-0.551,0.449-1,1-1h0.443
		c0.551,0,1,0.449,1,1V34z"/>
	<path style="fill:#010101;" d="M23.223,20.223c-0.551,0-1-0.449-1-1v-0.445c0-0.551,0.449-1,1-1H31c0.551,0,1,0.449,1,1v0.445
		c0,0.551-0.449,1-1,1H23.223z"/>
	<path style="fill:#010101;" d="M1,20.223c-0.551,0-1-0.449-1-1v-0.445c0-0.551,0.449-1,1-1h7.777c0.551,0,1,0.449,1,1v0.445
		c0,0.551-0.449,1-1,1H1z"/>
	<path style="fill:#010101;" d="M21.742,23.551c-0.484-0.262-0.664-0.875-0.398-1.355l0.215-0.391
		c0.266-0.48,0.879-0.66,1.359-0.395l6.816,3.746c0.484,0.266,0.66,0.875,0.395,1.355l-0.215,0.395
		c-0.266,0.48-0.875,0.656-1.359,0.395L21.742,23.551z"/>
	<path style="fill:#010101;" d="M2.268,12.844c-0.482-0.262-0.66-0.875-0.396-1.355l0.217-0.395c0.264-0.48,0.875-0.656,1.357-0.395
		l6.814,3.75c0.482,0.262,0.66,0.875,0.396,1.355l-0.217,0.395c-0.264,0.48-0.875,0.656-1.357,0.395L2.268,12.844z"/>
	<path style="fill:#010101;" d="M18.836,25.75c-0.295-0.465-0.154-1.086,0.311-1.379l0.373-0.234
		c0.465-0.293,1.086-0.156,1.379,0.309l4.172,6.562c0.293,0.465,0.156,1.086-0.312,1.379l-0.375,0.242
		c-0.461,0.293-1.082,0.156-1.375-0.309L18.836,25.75z"/>
	<path style="fill:#010101;" d="M6.932,6.988C6.637,6.523,6.777,5.902,7.24,5.609l0.375-0.238C8.078,5.078,8.699,5.215,8.994,5.68
		l4.17,6.57c0.295,0.465,0.154,1.086-0.311,1.379l-0.373,0.234c-0.465,0.293-1.086,0.156-1.381-0.309L6.932,6.988z"/>
	<path style="fill:#010101;" d="M11.193,24.527c0.287-0.473,0.906-0.621,1.375-0.336l0.379,0.234
		c0.469,0.285,0.619,0.902,0.332,1.375L9.23,32.441c-0.287,0.473-0.906,0.621-1.375,0.336l-0.381-0.234
		c-0.469-0.285-0.619-0.902-0.332-1.375L11.193,24.527z"/>
	<path style="fill:#010101;" d="M22.77,5.562c0.285-0.473,0.906-0.621,1.375-0.336l0.379,0.23c0.469,0.285,0.617,0.902,0.332,1.375
		l-4.051,6.637c-0.285,0.473-0.904,0.621-1.373,0.336l-0.381-0.23c-0.469-0.285-0.619-0.902-0.332-1.375L22.77,5.562z"/>
	<path style="fill:#010101;" d="M9.125,21.527c0.477-0.273,1.09-0.105,1.363,0.371l0.223,0.391c0.273,0.477,0.105,1.09-0.371,1.363
		L3.59,27.52c-0.477,0.273-1.09,0.105-1.363-0.371l-0.223-0.391c-0.273-0.477-0.105-1.09,0.371-1.363L9.125,21.527z"/>
	<path style="fill:#010101;" d="M28.406,10.484c0.477-0.273,1.094-0.105,1.367,0.371l0.219,0.387
		c0.273,0.477,0.109,1.09-0.367,1.363l-6.75,3.867c-0.477,0.273-1.094,0.105-1.367-0.371l-0.219-0.387
		c-0.273-0.477-0.109-1.09,0.367-1.363L28.406,10.484z"/>
</g>
</svg>
