<?xml version="1.0" encoding="iso-8859-1"?>
<!-- Generator: Adobe Illustrator 15.0.0, SVG Export Plug-In . SVG Version: 6.00 Build 0)  -->
<!DOCTYPE svg PUBLIC "-//W3C//DTD SVG 1.1//EN" "http://www.w3.org/Graphics/SVG/1.1/DTD/svg11.dtd">
<svg version="1.1" id="Layer_1" xmlns="http://www.w3.org/2000/svg" xmlns:xlink="http://www.w3.org/1999/xlink" x="0px" y="0px"
	 width="24px" height="43px" viewBox="0 0 24 43" style="enable-background:new 0 0 24 43;" xml:space="preserve">
<g>
	<path style="fill:#010101;" d="M21.125,4.379V3H20v1.379h-1.031V3h-1.125v1.379h-1.031V3h-1.125v1.379h-1.031V3h-1.125v1.379H12.5
		V3h-1.125v1.379h-1.031V3H9.219v1.379H8.188V3H7.062v1.379H6.031V3H4.906v1.379H3.875V3H2.75v1.379H0V35h24V4.379H21.125z
		 M22.664,33.668H1.334V5.711H2.75v1.168h1.125V5.711h1.031v1.168h1.125V5.711h1.031v1.168h1.125V5.711h1.031v1.168h1.125V5.711
		h1.031v1.168H12.5V5.711h1.031v1.168h1.125V5.711h1.031v1.168h1.125V5.711h1.031v1.168h1.125V5.711H20v1.168h1.125V5.711h1.539
		V33.668z"/>
	<rect x="4.625" y="11.281" style="fill:#010101;" width="8.094" height="1.129"/>
	<rect x="4.625" y="13.789" style="fill:#010101;" width="14.867" height="1.129"/>
	<rect x="4.625" y="16.293" style="fill:#010101;" width="14.867" height="1.129"/>
	<rect x="4.625" y="18.797" style="fill:#010101;" width="14.867" height="1.129"/>
	<rect x="4.625" y="21.305" style="fill:#010101;" width="14.867" height="1.129"/>
	<rect x="4.625" y="23.809" style="fill:#010101;" width="14.867" height="1.133"/>
	<rect x="4.625" y="26.316" style="fill:#010101;" width="14.867" height="1.129"/>
	<rect x="4.625" y="28.824" style="fill:#010101;" width="8.094" height="1.125"/>
</g>
</svg>
