<?xml version="1.0" encoding="iso-8859-1"?>
<!-- Generator: Adobe Illustrator 15.0.0, SVG Export Plug-In . SVG Version: 6.00 Build 0)  -->
<!DOCTYPE svg PUBLIC "-//W3C//DTD SVG 1.1//EN" "http://www.w3.org/Graphics/SVG/1.1/DTD/svg11.dtd">
<svg version="1.1" id="Layer_1" xmlns="http://www.w3.org/2000/svg" xmlns:xlink="http://www.w3.org/1999/xlink" x="0px" y="0px"
	 width="32px" height="43px" viewBox="0 0 32 43" style="enable-background:new 0 0 32 43;" xml:space="preserve">
<path style="fill:#010101;" d="M26.188,26.562c-1.211-0.434-4.125-2.125-4.125-2.125c-0.293-0.535-1.117-2.344-1.117-2.344
	l-0.699-0.469v-1.25c0.402-0.621,0.809-1.254,0.848-1.66c0.047-0.531,0.141-1.609,0.141-1.609c0.727,0,1.266-1.309,1.652-2.23
	c0.387-0.918,0.289-1.695,0.047-2.18s-0.676,0-0.676,0s0.188-1.801-0.008-4.758c-0.16-2.438-1.812-4.625-4.375-4.312
	C17.312,3.25,16.672,3,16,3c-3.83,0-5.992,1.98-6.188,4.938c-0.193,2.957-0.068,4.758-0.068,4.758s-0.436-0.484-0.678,0
	s-0.34,1.262,0.047,2.18c0.389,0.922,0.924,2.23,1.65,2.23c0,0,0.096,1.078,0.145,1.609c0.037,0.406,0.441,1.039,0.846,1.66v1.25
	l-0.699,0.469c0,0-0.824,1.809-1.117,2.344c0,0-2.912,1.691-4.125,2.125C4.602,27,0,28.594,0,30.312C0,33.613,0,35,0,35h16h16
	c0,0,0-1.387,0-4.688C32,28.594,27.398,27,26.188,26.562z"/>
</svg>
