<?xml version="1.0" encoding="iso-8859-1"?>
<!-- Generator: Adobe Illustrator 15.0.0, SVG Export Plug-In . SVG Version: 6.00 Build 0)  -->
<!DOCTYPE svg PUBLIC "-//W3C//DTD SVG 1.1//EN" "http://www.w3.org/Graphics/SVG/1.1/DTD/svg11.dtd">
<svg version="1.1" id="Layer_1" xmlns="http://www.w3.org/2000/svg" xmlns:xlink="http://www.w3.org/1999/xlink" x="0px" y="0px"
	 width="23.367px" height="43px" viewBox="0 0 23.367 43" style="enable-background:new 0 0 23.367 43;" xml:space="preserve">
<g>
	<path style="fill:#010101;" d="M20.473,7v3.855C18.285,8.488,15.16,7,11.68,7C5.984,7,1.227,10.973,0,16.293h3.098
		C4.25,12.652,7.66,10,11.68,10c2.855,0,5.398,1.34,7.047,3.418H14.77v2.895h8.598V7H20.473z"/>
	<path style="fill:#010101;" d="M20.262,21.688C19.117,25.34,15.699,28,11.672,28c-2.852,0-5.395-1.34-7.047-3.418h3.992v-2.895
		H0.016V31H2.91v-3.824C5.098,29.527,8.207,31,11.672,31c5.703,0,10.465-3.98,11.688-9.312H20.262z"/>
</g>
</svg>
