<?xml version="1.0" encoding="iso-8859-1"?>
<!-- Generator: Adobe Illustrator 15.0.0, SVG Export Plug-In . SVG Version: 6.00 Build 0)  -->
<!DOCTYPE svg PUBLIC "-//W3C//DTD SVG 1.1//EN" "http://www.w3.org/Graphics/SVG/1.1/DTD/svg11.dtd">
<svg version="1.1" id="Layer_1" xmlns="http://www.w3.org/2000/svg" xmlns:xlink="http://www.w3.org/1999/xlink" x="0px" y="0px"
	 width="32px" height="43px" viewBox="0 0 32 43" style="enable-background:new 0 0 32 43;" xml:space="preserve">
<g>
	<g>
		<path style="fill:#010101;" d="M32,12.063c-1.031-2.079-2.293-2.778-4.086-1.883c-1.297,0.645-8.662,4.313-12.654,6.305
			l3.934,1.957L32,12.063z"/>
	</g>
	<g>
		<path style="fill:#010101;" d="M1.346,25.376c-1.625,0.809-1.391,2.812-1.236,3.132c0.91,1.906,3.131,3.617,7.277,1.551
			c4.148-2.066,5.58-8.515,5.58-8.515l-1.973-0.977C8.637,21.743,1.346,25.376,1.346,25.376z M9.277,25.563
			c-0.506,0.812-0.674,1.597-2.973,2.741c-3.924,1.953-4.76-0.988-3.582-1.578c0.672-0.331,7.623-3.792,7.623-3.792
			S9.781,24.755,9.277,25.563z"/>
	</g>
	<g>
		<path style="fill:#010101;" d="M7.387,7.942C3.24,5.875,1.02,7.586,0.109,9.493c-0.154,0.32-0.389,2.325,1.236,3.133
			c0,0,9.154,4.562,10.275,5.121s1.068,2.488,1.068,2.488s13.432,6.69,15.225,7.585s3.055,0.195,4.086-1.882l-19.447-9.688
			C12.553,16.251,11.535,10.008,7.387,7.942z M2.723,11.271c-1.178-0.586-0.342-3.528,3.582-1.575
			c2.299,1.145,2.467,1.93,2.973,2.743c0.504,0.809,1.068,2.629,1.068,2.629S3.395,11.606,2.723,11.271z"/>
	</g>
</g>
</svg>
