<?xml version="1.0" encoding="iso-8859-1"?>
<!-- Generator: Adobe Illustrator 15.0.0, SVG Export Plug-In . SVG Version: 6.00 Build 0)  -->
<!DOCTYPE svg PUBLIC "-//W3C//DTD SVG 1.1//EN" "http://www.w3.org/Graphics/SVG/1.1/DTD/svg11.dtd">
<svg version="1.1" id="Layer_1" xmlns="http://www.w3.org/2000/svg" xmlns:xlink="http://www.w3.org/1999/xlink" x="0px" y="0px"
	 width="32px" height="43px" viewBox="0 0 32 43" style="enable-background:new 0 0 32 43;" xml:space="preserve">
<path style="fill:#010101;" d="M22.344,21.062C23.391,19.281,24,17.215,24,15c0-6.629-5.371-12-12-12C5.373,3,0,8.371,0,15
	s5.373,12,12,12c2.217,0,4.287-0.609,6.068-1.66L27.727,35L32,30.723L22.344,21.062z M12,23.461c-4.674,0-8.459-3.789-8.459-8.461
	S7.326,6.539,12,6.539s8.461,3.789,8.461,8.461S16.674,23.461,12,23.461z"/>
</svg>
