<?xml version="1.0" encoding="iso-8859-1"?>
<!-- Generator: Adobe Illustrator 15.0.0, SVG Export Plug-In . SVG Version: 6.00 Build 0)  -->
<!DOCTYPE svg PUBLIC "-//W3C//DTD SVG 1.1//EN" "http://www.w3.org/Graphics/SVG/1.1/DTD/svg11.dtd">
<svg version="1.1" id="Layer_1" xmlns="http://www.w3.org/2000/svg" xmlns:xlink="http://www.w3.org/1999/xlink" x="0px" y="0px"
	 width="32px" height="43px" viewBox="0 0 32 43" style="enable-background:new 0 0 32 43;" xml:space="preserve">
<g>
	<circle style="fill:#010101;" cx="3.688" cy="31.312" r="3.688"/>
	<path style="fill:#010101;" d="M2,19.051c-0.682,0-1.346,0.066-2,0.16v4.039c0.646-0.133,1.316-0.199,2-0.199
		c5.486,0,9.949,4.465,9.949,9.949c0,0.684-0.068,1.352-0.201,2h4.043c0.094-0.656,0.158-1.32,0.158-2
		C15.949,25.297,9.705,19.051,2,19.051z"/>
	<path style="fill:#010101;" d="M2,11c-0.676,0-1.34,0.035-2,0.094v4.027C0.658,15.047,1.324,15,2,15
		c9.924,0,17.998,8.078,17.998,18c0,0.68-0.045,1.344-0.117,2h4.025C23.965,34.34,24,33.676,24,33C24,20.852,14.15,11,2,11z"/>
	<path style="fill:#010101;" d="M2,3C1.326,3,0.662,3.031,0,3.074v4.012C0.66,7.035,1.326,7,2,7c14.336,0,26,11.664,26,26
		c0,0.672-0.035,1.34-0.086,2h4.012C31.969,34.34,32,33.672,32,33C32,16.434,18.568,3,2,3z"/>
</g>
</svg>
