<?xml version="1.0" encoding="iso-8859-1"?>
<!-- Generator: Adobe Illustrator 15.0.0, SVG Export Plug-In . SVG Version: 6.00 Build 0)  -->
<!DOCTYPE svg PUBLIC "-//W3C//DTD SVG 1.1//EN" "http://www.w3.org/Graphics/SVG/1.1/DTD/svg11.dtd">
<svg version="1.1" id="Layer_1" xmlns="http://www.w3.org/2000/svg" xmlns:xlink="http://www.w3.org/1999/xlink" x="0px" y="0px"
	 width="32px" height="43px" viewBox="0 0 32 43" style="enable-background:new 0 0 32 43;" xml:space="preserve">
<g>
	<path style="fill:#010101;" d="M32,10.582l-3.789-3.789L24.422,3h-7.9L0,19.52L15.479,35L32,18.48V10.582z M30.539,18.305
		L15.711,33.133L1.818,19.242L16.645,4.414h7.09l6.805,6.805V18.305z"/>
	<path style="fill:#010101;" d="M16.846,5.402L3.242,19.453L15.924,31.73l13.6-14.051l-0.102-6.262l-6.316-6.117L16.846,5.402z
		 M24.898,9.836c0.719,0.695,0.738,1.84,0.043,2.559s-1.84,0.734-2.559,0.039s-0.734-1.84-0.039-2.559
		C23.039,9.16,24.18,9.141,24.898,9.836z"/>
</g>
</svg>
