<?xml version="1.0" encoding="iso-8859-1"?>
<!-- Generator: Adobe Illustrator 15.0.0, SVG Export Plug-In . SVG Version: 6.00 Build 0)  -->
<!DOCTYPE svg PUBLIC "-//W3C//DTD SVG 1.1//EN" "http://www.w3.org/Graphics/SVG/1.1/DTD/svg11.dtd">
<svg version="1.1" id="Layer_1" xmlns="http://www.w3.org/2000/svg" xmlns:xlink="http://www.w3.org/1999/xlink" x="0px" y="0px"
	 width="29.904px" height="43px" viewBox="0 0 29.904 43" style="enable-background:new 0 0 29.904 43;" xml:space="preserve">
<path style="fill:#010101;" d="M25.67,16.738h-11.5V7.895C14.17,4.715,10.52,3,7.084,3C3.65,3,0,4.715,0,7.895
	c0,0,0,11.273,0,11.773s0.156,1.594,1.285,1.594c0.99,0,1.23-0.852,1.273-1.391l-1.156-1.035l1.166-1.039c0-3.332,0-9.902,0-9.902
	c0-1.371,2.378-2.328,4.516-2.328c2.139,0,4.518,0.957,4.518,2.328v4.594v4.25H11.5H7.174V35h22.73V16.738H25.67z"/>
</svg>
