<?xml version="1.0" encoding="iso-8859-1"?>
<!-- Generator: Adobe Illustrator 15.0.0, SVG Export Plug-In . SVG Version: 6.00 Build 0)  -->
<!DOCTYPE svg PUBLIC "-//W3C//DTD SVG 1.1//EN" "http://www.w3.org/Graphics/SVG/1.1/DTD/svg11.dtd">
<svg version="1.1" id="Layer_1" xmlns="http://www.w3.org/2000/svg" xmlns:xlink="http://www.w3.org/1999/xlink" x="0px" y="0px"
	 width="32px" height="43px" viewBox="0 0 32 43" style="enable-background:new 0 0 32 43;" xml:space="preserve">
<path style="fill:#010101;" d="M0,3v32h32V3H0z M4.875,34h-3.75v-2.668h3.75V34z M4.875,29.488h-3.75V26.82h3.75V29.488z
	 M4.875,24.973h-3.75v-2.668h3.75V24.973z M4.875,20.457h-3.75v-2.664h3.75V20.457z M4.875,15.945h-3.75v-2.668h3.75V15.945z
	 M4.875,11.43h-3.75V8.762h3.75V11.43z M4.875,6.918h-3.75V4.25h3.75V6.918z M26,26.176v6.055H6v-6.055v-6.051h20V26.176z
	 M26,11.824v6.051H6v-6.051V5.77h20V11.824z M30.875,33.75h-3.75v-2.668h3.75V33.75z M30.875,29.277h-3.75v-2.664h3.75V29.277z
	 M30.875,24.805h-3.75v-2.668h3.75V24.805z M30.875,20.332h-3.75v-2.664h3.75V20.332z M30.875,15.863h-3.75v-2.668h3.75V15.863z
	 M30.875,11.387h-3.75V8.723h3.75V11.387z M30.875,6.918h-3.75V4.25h3.75V6.918z"/>
</svg>
