<?xml version="1.0" encoding="iso-8859-1"?>
<!-- Generator: Adobe Illustrator 15.0.0, SVG Export Plug-In . SVG Version: 6.00 Build 0)  -->
<!DOCTYPE svg PUBLIC "-//W3C//DTD SVG 1.1//EN" "http://www.w3.org/Graphics/SVG/1.1/DTD/svg11.dtd">
<svg version="1.1" id="Layer_1" xmlns="http://www.w3.org/2000/svg" xmlns:xlink="http://www.w3.org/1999/xlink" x="0px" y="0px"
	 width="32px" height="43px" viewBox="0 0 32 43" style="enable-background:new 0 0 32 43;" xml:space="preserve">
<g>
	<polygon style="fill:#010101;" points="16.062,8.038 6.955,13.405 0,13.405 0,24.367 6.703,24.367 16.062,29.961 	"/>
	<g>
		<path style="fill:#010101;" d="M23.898,33.73c-0.383,0-0.762-0.172-1.012-0.5c-0.422-0.559-0.312-1.352,0.246-1.773
			c0.531-0.402,0.992-0.793,1.406-1.188c3.18-3.008,4.93-7.012,4.93-11.27c0-4.263-1.75-8.263-4.93-11.271
			c-0.414-0.395-0.875-0.781-1.41-1.188c-0.559-0.422-0.664-1.215-0.242-1.773c0.426-0.555,1.215-0.664,1.77-0.242
			c0.609,0.461,1.141,0.906,1.625,1.363C29.969,9.382,32,14.038,32,19c0,4.961-2.031,9.617-5.719,13.109
			c-0.488,0.457-1.016,0.902-1.625,1.363C24.43,33.645,24.164,33.73,23.898,33.73z"/>
	</g>
	<g>
		<path style="fill:#010101;" d="M18.605,31.473c-0.383,0-0.76-0.172-1.01-0.5c-0.422-0.555-0.312-1.348,0.244-1.773
			c0.438-0.332,0.816-0.648,1.154-0.969c2.607-2.469,4.037-5.746,4.037-9.23c0-3.489-1.43-6.767-4.035-9.231
			c-0.342-0.32-0.719-0.637-1.156-0.969c-0.557-0.422-0.666-1.219-0.244-1.773s1.215-0.664,1.771-0.246
			c0.512,0.391,0.961,0.766,1.367,1.152c3.113,2.949,4.828,6.875,4.828,11.067c0,4.188-1.715,8.117-4.828,11.066
			c-0.406,0.387-0.854,0.762-1.365,1.148C19.141,31.391,18.871,31.473,18.605,31.473z"/>
	</g>
</g>
</svg>
