<?xml version="1.0" encoding="iso-8859-1"?>
<!-- Generator: Adobe Illustrator 15.0.0, SVG Export Plug-In . SVG Version: 6.00 Build 0)  -->
<!DOCTYPE svg PUBLIC "-//W3C//DTD SVG 1.1//EN" "http://www.w3.org/Graphics/SVG/1.1/DTD/svg11.dtd">
<svg version="1.1" id="Layer_1" xmlns="http://www.w3.org/2000/svg" xmlns:xlink="http://www.w3.org/1999/xlink" x="0px" y="0px"
	 width="32px" height="43px" viewBox="0 0 32 43" style="enable-background:new 0 0 32 43;" xml:space="preserve">
<path style="fill:#010101;" d="M31.352,8.172l-7.195,7.195l-3.57-0.957l-0.957-3.57l7.195-7.195
	c-3.051-1.27-6.699-0.668-9.186,1.816c-2.471,2.469-3.082,6.094-1.836,9.137L2.995,27.407c0,0-1.152,1.152-2.043,2.043
	c-1.27,1.27-1.27,3.328,0,4.598s3.328,1.27,4.597,0c0.891-0.891,2.043-2.043,2.043-2.043l12.807-12.809
	c3.043,1.246,6.668,0.633,9.141-1.837C32.023,14.875,32.625,11.227,31.352,8.172z M3.718,33.88l-2.049-0.551l-0.551-2.051l1.502-1.5
	l2.051,0.551l0.548,2.051L3.718,33.88z"/>
</svg>
